<?xml version="1.0" standalone="no"?>
<!DOCTYPE svg PUBLIC "-//W3C//DTD SVG 20010904//EN"
 "http://www.w3.org/TR/2001/REC-SVG-20010904/DTD/svg10.dtd">
<svg version="1.0" xmlns="http://www.w3.org/2000/svg"
 width="1000.000000pt" height="1000.000000pt" viewBox="0 0 1000.000000 1000.000000"
 preserveAspectRatio="xMidYMid meet">
<metadata>
Created by potrace 1.11, written by Peter Selinger 2001-2013
</metadata>
<g transform="translate(0.000000,1000.000000) scale(0.100000,-0.100000)"
fill="#000000" stroke="none">
<path d="M6735 6831 c-92 -24 -163 -85 -206 -176 -53 -114 -27 -255 63 -344
121 -119 319 -118 439 2 14 14 38 50 55 79 25 47 29 62 28 138 0 72 -4 93 -26
135 -55 105 -145 164 -257 170 -36 2 -79 1 -96 -4z"/>
<path d="M8480 6827 c-90 -32 -150 -85 -189 -167 -37 -79 -37 -194 1 -265 34
-64 79 -110 143 -143 43 -23 63 -27 135 -27 78 0 90 3 145 33 73 41 110 83
142 164 60 148 -9 317 -156 386 -63 29 -166 38 -221 19z"/>
<path d="M6495 6171 c-74 -33 -106 -89 -119 -206 -2 -27 -19 -131 -36 -230
-17 -99 -33 -196 -36 -215 -3 -19 -7 -41 -10 -49 -2 -7 -7 -34 -10 -60 -2 -25
-7 -53 -9 -61 -8 -27 -45 -245 -45 -266 0 -11 6 -21 13 -21 6 0 53 -8 102 -17
50 -9 97 -16 106 -16 15 0 28 54 55 225 1 11 8 49 15 85 6 36 13 75 14 87 2
12 6 34 9 50 3 15 9 46 12 68 3 22 8 42 10 44 2 2 4 -289 4 -647 l0 -652 240
0 240 0 2 396 3 396 105 40 c58 22 146 55 197 73 l91 34 -5 -465 -6 -464 258
0 257 0 -4 470 c-3 259 -3 470 -1 470 3 0 211 -76 326 -120 l57 -21 0 -405 0
-404 240 0 240 0 1 653 c1 594 4 675 23 542 8 -53 15 -95 21 -121 3 -12 7 -39
10 -60 3 -21 10 -61 15 -89 5 -27 12 -66 15 -85 13 -76 16 -95 20 -98 2 -3 56
4 120 14 105 16 115 20 115 39 0 11 -16 108 -34 215 -19 107 -38 211 -41 230
-3 19 -19 112 -35 205 -16 94 -34 205 -40 248 -11 84 -25 120 -62 154 -53 49
-78 53 -375 53 -249 0 -282 -2 -318 -19 -48 -22 -79 -54 -100 -103 -12 -31
-15 -94 -15 -382 l0 -345 -127 45 c-71 24 -144 53 -164 64 -78 42 -245 35
-306 -13 -15 -12 -85 -43 -155 -68 l-128 -46 0 356 c0 325 -2 360 -19 396 -22
48 -54 79 -103 100 -31 12 -87 15 -315 15 -248 0 -282 -2 -318 -19z"/>
<path d="M2340 5997 c-3 -3 -32 -7 -65 -10 -33 -3 -120 -11 -192 -18 l-133
-13 0 -58 c0 -39 4 -58 13 -59 6 0 154 -2 327 -4 173 -1 328 -6 344 -9 79 -18
129 -54 162 -117 15 -30 32 -205 26 -262 l-3 -28 -87 5 c-48 3 -139 9 -202 13
-434 27 -595 -46 -655 -299 -22 -92 -14 -352 12 -429 43 -126 100 -188 209
-229 53 -19 69 -23 169 -40 50 -8 291 -6 395 4 54 6 128 12 265 22 39 3 86 7
105 9 19 2 38 4 43 4 10 1 7 1060 -4 1146 -28 223 -137 316 -419 360 -52 8
-304 18 -310 12z m481 -726 c1 -34 1 -618 0 -653 l-1 -27 -247 3 c-151 2 -268
8 -300 15 -122 29 -153 100 -153 351 0 129 15 220 43 263 18 29 71 55 130 66
23 4 151 8 285 8 l242 1 1 -27z"/>
<path d="M5232 5988 c-72 -10 -180 -48 -223 -79 -76 -54 -114 -105 -151 -205
-21 -57 -22 -76 -25 -459 -2 -323 0 -413 12 -468 56 -256 215 -342 615 -331
96 3 193 6 215 9 36 3 271 17 303 18 13 0 14 3 14 57 1 84 35 75 -304 75 -335
0 -418 6 -489 36 -41 18 -53 30 -74 74 -26 52 -32 96 -38 274 l-2 63 107 -6
c58 -4 114 -8 125 -10 36 -7 219 -18 263 -17 189 8 300 41 365 108 50 51 70
98 91 208 16 86 11 291 -9 360 -43 152 -137 237 -309 281 -73 19 -385 27 -486
12z m354 -153 c162 -24 212 -121 202 -386 -4 -102 -9 -125 -32 -172 -42 -87
-54 -90 -388 -95 l-278 -4 -1 24 c-3 95 1 381 6 413 22 143 86 208 218 222 29
3 53 6 54 7 5 4 179 -3 219 -9z"/>
<path d="M7619 5986 c-54 -19 -94 -51 -128 -102 -100 -152 0 -362 181 -381
146 -15 269 90 274 234 3 79 -18 135 -72 189 -65 66 -170 91 -255 60z"/>
<path d="M1145 5983 c-262 -34 -368 -120 -410 -335 -21 -108 -15 -839 7 -915
53 -175 142 -246 348 -278 79 -12 345 -13 396 -2 11 3 63 8 115 12 134 9 129
6 129 76 l0 59 -257 1 c-142 0 -267 2 -278 4 -11 2 -38 6 -60 10 -22 3 -56 17
-77 30 -41 27 -63 81 -74 180 -8 75 -8 712 0 780 10 85 35 151 67 174 22 16
93 39 154 50 3 1 122 1 265 1 l260 0 0 59 c0 69 5 66 -135 77 -44 3 -93 8
-110 10 -42 7 -304 12 -340 7z"/>
<path d="M3898 5985 c-2 -1 -61 -6 -133 -9 -130 -6 -282 -15 -363 -20 -23 -2
-45 -6 -49 -9 -4 -5 -7 -1336 -3 -1901 l0 -79 85 7 c102 7 139 24 154 68 18
55 19 77 20 261 l1 178 38 -5 c20 -3 80 -8 132 -11 52 -4 109 -9 125 -11 17
-3 89 -7 160 -9 317 -11 483 101 525 355 15 91 11 774 -5 848 -52 242 -213
340 -557 340 -70 0 -128 -2 -130 -3z m248 -166 c120 -22 165 -71 183 -199 10
-73 7 -799 -3 -844 -21 -88 -62 -137 -135 -157 -31 -9 -127 -13 -311 -13
l-265 -1 -3 613 -2 612 238 0 c131 0 265 -5 298 -11z"/>
<path d="M1659 3933 c-61 -30 -88 -116 -84 -265 4 -161 42 -224 139 -235 86
-10 148 48 158 148 5 45 5 45 -23 41 -16 -2 -30 -11 -30 -18 -1 -8 -3 -18 -4
-24 -1 -5 -3 -18 -4 -29 0 -10 -13 -31 -27 -46 -21 -23 -31 -27 -61 -22 -70
12 -93 61 -93 201 0 109 15 171 48 196 51 41 125 11 138 -55 5 -28 11 -35 29
-35 28 0 35 15 24 54 -26 91 -123 132 -210 89z"/>
<path d="M1959 3923 c0 -10 -1 -121 -2 -248 l0 -230 26 -3 27 -3 0 143 c1 149
4 164 47 186 26 14 67 2 77 -23 3 -9 6 -82 6 -161 l0 -144 25 0 c28 0 27 -11
26 198 0 142 -9 167 -65 177 -41 8 -65 2 -94 -26 l-22 -20 0 86 c0 84 0 85
-25 85 -17 0 -25 -6 -26 -17z"/>
<path d="M2288 3928 c-10 -29 4 -58 28 -58 21 0 24 5 24 35 0 30 -3 35 -24 35
-13 0 -26 -5 -28 -12z"/>
<path d="M2439 3918 c0 -13 -1 -124 -2 -248 l0 -225 26 -3 27 -3 0 250 0 251
-25 0 c-19 0 -25 -5 -26 -22z"/>
<path d="M2770 3860 l0 -80 -32 20 c-47 28 -84 26 -118 -8 -38 -39 -53 -100
-48 -197 5 -91 25 -137 70 -156 37 -15 89 -4 110 24 l18 22 0 -22 c0 -18 6
-23 25 -23 14 0 25 6 26 13 0 6 1 119 2 250 l2 237 -27 0 -28 0 0 -80z m-13
-131 c7 -17 11 -72 10 -121 -2 -85 -3 -91 -30 -114 -32 -27 -58 -25 -92 7 -17
17 -20 32 -19 117 0 58 5 106 13 120 27 50 98 45 118 -9z"/>
<path d="M3095 3690 l0 -250 27 0 28 0 0 105 0 105 60 1 c66 2 65 1 100 13 50
17 80 75 75 147 -6 97 -54 129 -197 129 l-93 0 0 -250z m195 185 c33 -17 47
-62 35 -115 -9 -39 -52 -60 -125 -60 l-50 0 0 95 0 95 55 0 c31 0 69 -7 85
-15z"/>
<path d="M4978 3928 c-10 -29 4 -58 28 -58 21 0 24 5 24 35 0 30 -3 35 -24 35
-13 0 -26 -5 -28 -12z"/>
<path d="M5958 3917 c-7 -34 1 -47 28 -47 21 0 24 5 24 35 0 30 -3 35 -24 35
-17 0 -25 -7 -28 -23z"/>
<path d="M6610 3690 l0 -250 125 0 125 0 0 25 c0 25 0 25 -98 25 l-97 0 0 90
-1 90 91 0 c89 0 91 0 93 25 2 24 1 24 -91 27 l-92 3 0 83 -1 82 98 0 c98 0
98 0 98 25 l0 25 -125 0 -125 0 0 -250z"/>
<path d="M7118 3858 c-3 -81 -3 -81 -22 -62 -13 13 -33 19 -63 19 -50 0 -77
-22 -98 -81 -19 -53 -14 -209 7 -250 31 -57 109 -72 153 -29 22 23 31 21 26
-7 0 -5 11 -8 27 -8 l27 0 -2 242 c-1 134 -2 246 -3 251 0 4 -11 7 -25 7 -23
0 -24 -2 -27 -82z m-21 -110 c15 -17 18 -38 18 -123 0 -94 -2 -105 -23 -128
-28 -30 -64 -29 -95 1 -16 17 -21 36 -23 96 -2 42 3 95 9 118 19 66 72 82 114
36z"/>
<path d="M8378 3923 c-8 -34 3 -54 25 -51 17 2 23 11 25 36 3 28 0 32 -21 32
-15 0 -26 -7 -29 -17z"/>
<path d="M4016 3860 c2 -46 0 -50 -21 -50 -43 0 -38 -44 5 -45 13 0 15 -24 17
-148 1 -98 5 -153 13 -162 8 -9 30 -15 56 -15 37 0 44 3 44 20 0 11 -4 21 -10
21 -5 1 -14 3 -20 4 -5 1 -14 3 -20 4 -6 1 -10 55 -10 140 0 125 2 138 18 138
36 0 42 4 42 23 0 16 -7 20 -30 20 -29 0 -30 1 -30 50 0 48 -1 50 -28 50 -27
0 -28 -2 -26 -50z"/>
<path d="M4798 3905 c-2 -2 -3 -25 -2 -50 2 -42 1 -45 -22 -45 -19 0 -24 -5
-24 -24 0 -18 5 -23 23 -22 22 1 22 0 23 -146 1 -170 4 -178 71 -178 40 0 44
2 41 23 -2 12 -10 22 -18 23 -8 1 -21 2 -27 2 -10 2 -13 37 -13 141 0 125 2
138 18 138 36 0 42 4 42 23 0 16 -7 20 -30 20 -29 0 -30 1 -30 50 0 46 -2 50
-23 50 -13 0 -26 -2 -29 -5z"/>
<path d="M8210 3860 c0 -46 -2 -50 -24 -50 -14 0 -27 -3 -29 -7 -9 -15 8 -38
28 -38 19 0 20 -7 21 -147 1 -170 4 -178 71 -178 40 0 44 2 41 23 -2 12 -9 23
-15 23 -7 1 -20 2 -28 3 -13 1 -15 21 -13 139 l3 137 25 0 c18 0 26 6 28 23 3
19 -1 22 -27 22 -30 0 -31 1 -31 50 0 47 -2 50 -25 50 -23 0 -25 -3 -25 -50z"/>
<path d="M3745 3811 c-52 -22 -83 -95 -79 -186 6 -136 39 -188 122 -191 96 -4
134 47 138 183 3 93 -11 141 -53 177 -27 24 -91 32 -128 17z m82 -40 c40 -3
63 -178 34 -250 -22 -52 -83 -62 -119 -19 -16 20 -26 125 -18 183 8 53 43 96
72 90 11 -2 25 -4 31 -4z"/>
<path d="M4233 3791 c-39 -39 -53 -89 -49 -185 3 -87 20 -134 58 -160 46 -32
117 -15 148 36 28 46 26 75 -4 80 -22 4 -25 1 -28 -25 -2 -18 -13 -38 -29 -49
-36 -27 -74 -9 -87 42 -20 82 -18 84 83 90 l90 5 -3 48 c-2 26 -5 53 -6 60
-17 83 -115 116 -173 58z m104 -34 c7 -7 14 -31 16 -52 l2 -40 -60 0 c-66 0
-69 4 -51 60 16 51 59 66 93 32z"/>
<path d="M4538 3804 c-44 -23 -61 -68 -64 -166 -4 -107 11 -155 56 -185 64
-44 150 -17 169 54 16 55 14 63 -14 63 -14 0 -25 -6 -26 -12 -3 -50 -21 -76
-57 -83 -50 -9 -80 53 -77 162 2 76 20 122 53 134 33 13 71 -12 79 -51 4 -23
11 -30 29 -30 31 0 32 32 4 78 -31 51 -96 67 -152 36z"/>
<path d="M5185 3811 c-55 -24 -85 -104 -78 -208 7 -109 41 -162 111 -170 58
-7 105 17 127 63 21 45 30 186 14 231 -19 55 -53 83 -105 88 -27 3 -58 1 -69
-4z m102 -57 c29 -28 37 -176 13 -234 -16 -38 -58 -55 -93 -37 -44 21 -63 170
-31 246 20 49 76 61 111 25z"/>
<path d="M5555 3809 c-11 -6 -26 -19 -32 -27 -11 -14 -13 -13 -13 7 0 18 -5
22 -27 19 l-26 -3 0 -180 0 -180 27 -3 26 -3 0 145 c0 152 2 160 50 186 23 12
65 -2 74 -25 3 -9 6 -82 6 -161 l0 -144 25 0 c28 0 26 -10 27 160 0 152 -2
167 -20 190 -20 25 -87 36 -117 19z"/>
<path d="M6189 3795 c-31 -20 -36 -22 -35 -7 1 11 -8 18 -21 20 -21 3 -23 -1
-24 -40 -1 -52 -1 -286 0 -310 1 -12 9 -18 26 -18 l25 0 0 134 c0 148 7 180
42 192 41 14 49 13 69 -7 17 -17 19 -34 19 -169 l0 -150 25 0 c20 0 25 5 26
28 1 29 1 268 0 290 -1 7 -12 24 -26 37 -32 33 -79 33 -126 0z"/>
<path d="M7658 3804 c-15 -8 -35 -29 -45 -47 -22 -42 -28 -190 -10 -243 16
-45 66 -84 108 -84 65 0 102 33 114 103 7 35 6 37 -18 37 -20 0 -26 -6 -31
-34 -16 -84 -106 -81 -125 4 -11 49 -6 155 10 191 25 62 102 54 116 -11 4 -24
11 -30 31 -30 22 0 24 3 18 32 -17 85 -94 123 -168 82z"/>
<path d="M7935 3810 c-30 -11 -45 -33 -50 -69 -3 -27 0 -31 19 -31 18 0 25 7
30 30 6 30 14 34 65 32 30 -2 39 -10 41 -42 4 -46 0 -50 -75 -85 -82 -37 -97
-58 -93 -125 2 -43 13 -61 45 -78 34 -19 69 -14 100 12 29 24 29 24 42 5 8
-14 21 -19 39 -17 32 4 42 33 15 42 -17 5 -19 18 -18 132 1 140 -9 179 -50
194 -31 12 -82 12 -110 0z m88 -312 c-41 -40 -89 -27 -96 27 -6 43 7 62 61 89
l47 24 3 -61 c2 -48 -1 -64 -15 -79z"/>
<path d="M8582 3800 c-43 -26 -64 -78 -65 -160 -2 -87 19 -154 55 -185 63 -53
173 -17 196 64 4 14 7 65 7 112 0 66 -4 94 -20 122 -34 64 -111 85 -173 47z
m94 -30 c36 0 61 -137 42 -223 -10 -45 -23 -61 -59 -70 -56 -14 -89 44 -89
156 0 88 37 156 78 142 8 -3 20 -5 28 -5z"/>
<path d="M8955 3808 c-11 -6 -25 -19 -32 -27 -11 -14 -12 -13 -13 7 0 17 -6
22 -25 22 -19 0 -25 -5 -26 -22 -1 -29 -1 -319 0 -335 1 -7 12 -13 26 -13 l25
0 0 143 c1 148 4 163 47 185 26 14 67 2 77 -23 3 -9 6 -82 6 -161 l0 -144 25
0 c28 0 27 -12 27 202 0 68 -5 125 -12 138 -19 36 -85 51 -125 28z"/>
<path d="M2289 3788 c0 -25 0 -316 0 -335 1 -7 12 -13 26 -13 l25 0 0 185 0
185 -25 0 c-19 0 -25 -5 -26 -22z"/>
<path d="M3469 3767 c0 -42 0 -263 1 -304 0 -18 6 -23 25 -23 l25 0 0 119 c0
162 16 201 84 201 21 0 26 5 26 25 0 19 -5 25 -21 25 -25 0 -60 -18 -76 -39
-12 -15 -14 -13 -17 18 0 8 -11 16 -23 17 -21 4 -23 0 -24 -39z"/>
<path d="M4979 3798 c0 -7 -1 -89 -1 -183 l-1 -170 27 -3 26 -3 0 185 0 186
-25 0 c-14 0 -25 -6 -26 -12z"/>
<path d="M5959 3803 c-1 -11 -1 -335 0 -350 1 -7 12 -13 26 -13 l25 0 0 185 0
185 -25 0 c-14 0 -25 -3 -26 -7z"/>
<path d="M7270 3645 l0 -166 26 -24 c36 -33 83 -33 123 1 30 25 31 25 31 5 0
-16 6 -21 25 -21 14 0 25 3 26 8 1 9 1 333 0 350 -1 6 -12 12 -26 12 l-25 0 0
-139 c0 -131 -1 -141 -22 -164 -26 -28 -66 -41 -88 -27 -12 7 -15 38 -17 157
-1 81 -2 154 -2 161 -1 6 -12 12 -26 12 l-25 0 0 -165z"/>
<path d="M8379 3788 c-1 -29 -1 -319 0 -335 1 -7 12 -13 26 -13 l25 0 0 185 0
185 -25 0 c-19 0 -25 -5 -26 -22z"/>
</g>
</svg>
