<svg width="204" height="90" viewBox="0 0 204 90" fill="none" xmlns="http://www.w3.org/2000/svg">
<g filter="url(#filter0_d)">
<path d="M139.955 19.5676C142.808 19.5676 145.12 16.8998 145.12 13.6089C145.12 10.318 142.808 7.65018 139.955 7.65018C137.103 7.65018 134.791 10.318 134.791 13.6089C134.791 16.8998 137.103 19.5676 139.955 19.5676Z" fill="white"/>
</g>
<g filter="url(#filter1_d)">
<path d="M176.752 19.5676C179.604 19.5676 181.916 16.8998 181.916 13.6089C181.916 10.318 179.604 7.65018 176.752 7.65018C173.899 7.65018 171.587 10.318 171.587 13.6089C171.587 16.8998 173.899 19.5676 176.752 19.5676Z" fill="white"/>
</g>
<g filter="url(#filter2_d)">
<path d="M157.385 34.7955C159.524 34.7955 161.258 32.7205 161.258 30.1609C161.258 27.6014 159.524 25.5264 157.385 25.5264C155.246 25.5264 153.512 27.6014 153.512 30.1609C153.512 32.7205 155.246 34.7955 157.385 34.7955Z" fill="white"/>
</g>
<g filter="url(#filter3_d)">
<path d="M126.399 41.7473C126.722 42.4093 130.595 44.3956 131.24 44.0646C131.886 43.7335 133.822 33.8023 133.822 33.8023V60.9475H144.474V45.3887C144.474 44.0646 153.512 41.7473 153.512 41.7473V60.9475H161.904V41.7473L171.265 45.3887V60.9475H182.239V33.8023C182.239 33.8023 184.176 43.4025 184.498 44.0646C184.821 44.7267 189.017 42.4093 189.017 41.7473C189.017 41.0852 184.821 25.5264 184.498 24.5332C184.176 23.5401 183.853 20.2297 182.239 20.2297C180.625 20.2297 171.587 19.8987 170.619 20.2297C169.651 20.5608 169.005 21.2228 168.36 22.2159C167.714 23.2091 168.36 37.7748 168.36 37.7748C168.36 37.7748 163.195 35.1265 161.904 35.1265H153.512C152.866 35.1265 147.379 37.7748 147.379 37.7748V22.2159C147.379 20.8918 146.088 20.8918 145.12 20.2297C144.151 19.5676 134.791 19.8987 133.822 20.2297C132.855 20.5608 131.24 24.5332 131.24 24.5332C131.24 24.5332 126.076 41.0852 126.399 41.7473Z" fill="white"/>
</g>
<g filter="url(#filter4_d)">
<path d="M7.00537 40.7188C7.00537 37.5714 7.70788 34.748 9.11289 32.2485C10.5179 29.7183 12.4269 27.7434 14.8398 26.324C17.2833 24.9045 19.9865 24.1948 22.9492 24.1948C26.4312 24.1948 29.4703 25.0434 32.0665 26.7405C34.6627 28.4377 36.5564 30.8445 37.7477 33.9611H32.7538C31.868 32.0171 30.5851 30.5205 28.9052 29.4714C27.2559 28.4223 25.2705 27.8977 22.9492 27.8977C20.7195 27.8977 18.7189 28.4223 16.9474 29.4714C15.1758 30.5205 13.7861 32.0171 12.7781 33.9611C11.7702 35.8743 11.2662 38.1268 11.2662 40.7188C11.2662 43.28 11.7702 45.5325 12.7781 47.4765C13.7861 49.3897 15.1758 50.8708 16.9474 51.92C18.7189 52.9691 20.7195 53.4937 22.9492 53.4937C25.2705 53.4937 27.2559 52.9845 28.9052 51.9663C30.5851 50.9171 31.868 49.4205 32.7538 47.4765H37.7477C36.5564 50.5623 34.6627 52.9537 32.0665 54.6508C29.4703 56.3171 26.4312 57.1503 22.9492 57.1503C19.9865 57.1503 17.2833 56.456 14.8398 55.0674C12.4269 53.648 10.5179 51.6885 9.11289 49.1891C7.70788 46.6897 7.00537 43.8663 7.00537 40.7188ZM62.8299 49.6983H48.902L46.3363 56.8725H41.938L53.4835 24.7965H58.2942L69.7938 56.8725H65.3955L62.8299 49.6983ZM61.6387 46.2731L55.8659 29.9805L50.0932 46.2731H61.6387ZM96.1759 34.0537C96.1759 36.7383 95.2596 38.9754 93.427 40.7651C91.6249 42.524 88.8607 43.4034 85.1344 43.4034H78.9951V56.8725H74.8259V24.6114H85.1344C88.7385 24.6114 91.4722 25.4908 93.3354 27.2497C95.2291 29.0085 96.1759 31.2765 96.1759 34.0537ZM85.1344 39.932C87.4557 39.932 89.1661 39.4228 90.2657 38.4045C91.3653 37.3863 91.9151 35.936 91.9151 34.0537C91.9151 30.0731 89.6548 28.0828 85.1344 28.0828H78.9951V39.932H85.1344ZM105.527 28.0365V38.8211H117.164V42.2925H105.527V53.4011H118.538V56.8725H101.358V24.5651H118.538V28.0365H105.527Z" fill="white"/>
</g>
<g filter="url(#filter5_d)">
<path d="M24.8943 74.07C24.8943 73.2832 25.0699 72.5773 25.4212 71.9524C25.7724 71.3199 26.2497 70.8262 26.8529 70.4713C27.4638 70.1164 28.1396 69.939 28.8802 69.939C29.7507 69.939 30.5105 70.1512 31.1596 70.5754C31.8086 70.9997 32.2821 71.6014 32.5799 72.3806H31.3314C31.1099 71.8946 30.7892 71.5204 30.3693 71.2582C29.9569 70.9959 29.4606 70.8647 28.8802 70.8647C28.3228 70.8647 27.8227 70.9959 27.3798 71.2582C26.9369 71.5204 26.5895 71.8946 26.3375 72.3806C26.0855 72.8589 25.9595 73.422 25.9595 74.07C25.9595 74.7103 26.0855 75.2734 26.3375 75.7594C26.5895 76.2377 26.9369 76.608 27.3798 76.8703C27.8227 77.1326 28.3228 77.2637 28.8802 77.2637C29.4606 77.2637 29.9569 77.1364 30.3693 76.8819C30.7892 76.6196 31.1099 76.2454 31.3314 75.7594H32.5799C32.2821 76.5309 31.8086 77.1287 31.1596 77.553C30.5105 77.9696 29.7507 78.1779 28.8802 78.1779C28.1396 78.1779 27.4638 78.0043 26.8529 77.6572C26.2497 77.3023 25.7724 76.8124 25.4212 76.1876C25.0699 75.5627 24.8943 74.8569 24.8943 74.07ZM37.2469 71.6516C37.7203 71.6516 38.1479 71.7557 38.5297 71.964C38.9115 72.1646 39.2093 72.4693 39.4231 72.8782C39.6446 73.287 39.7553 73.7846 39.7553 74.3709V78.1084H38.7244V74.5213C38.7244 73.8887 38.5679 73.4066 38.2548 73.0749C37.9417 72.7354 37.5141 72.5657 36.972 72.5657C36.4222 72.5657 35.9831 72.7393 35.6548 73.0864C35.3341 73.4336 35.1737 73.9389 35.1737 74.6023V78.1084H34.1314V69.5456H35.1737V72.6699C35.3799 72.3459 35.6624 72.0952 36.0213 71.9177C36.3878 71.7403 36.7964 71.6516 37.2469 71.6516ZM42.5002 69.5456V78.1084H41.4579V69.5456H42.5002ZM44.815 70.7374C44.6164 70.7374 44.4485 70.668 44.311 70.5292C44.1736 70.3903 44.1048 70.2206 44.1048 70.02C44.1048 69.8194 44.1736 69.6497 44.311 69.5109C44.4485 69.372 44.6164 69.3026 44.815 69.3026C45.0059 69.3026 45.1662 69.372 45.296 69.5109C45.4335 69.6497 45.5022 69.8194 45.5022 70.02C45.5022 70.2206 45.4335 70.3903 45.296 70.5292C45.1662 70.668 45.0059 70.7374 44.815 70.7374ZM45.319 71.7673V78.1084H44.2766V71.7673H45.319ZM46.706 74.9147C46.706 74.2667 46.8358 73.6997 47.0954 73.2137C47.355 72.72 47.7101 72.3382 48.1606 72.0682C48.6188 71.7982 49.1304 71.6632 49.6954 71.6632C50.1841 71.6632 50.6385 71.7789 51.0584 72.0103C51.4784 72.234 51.7991 72.531 52.0206 72.9013V69.5456H53.0743V78.1084H52.0206V76.9166C51.8144 77.2946 51.509 77.607 51.1043 77.8539C50.6996 78.093 50.2261 78.2126 49.684 78.2126C49.1266 78.2126 48.6188 78.0737 48.1606 77.796C47.7101 77.5183 47.355 77.1287 47.0954 76.6273C46.8358 76.1259 46.706 75.555 46.706 74.9147ZM52.0206 74.9263C52.0206 74.448 51.9251 74.0314 51.7342 73.6766C51.5433 73.3217 51.2837 73.0517 50.9554 72.8666C50.6346 72.6737 50.2796 72.5773 49.8901 72.5773C49.5007 72.5773 49.1456 72.6699 48.8249 72.855C48.5042 73.0402 48.2484 73.3102 48.0575 73.665C47.8666 74.0199 47.7712 74.4364 47.7712 74.9147C47.7712 75.4007 47.8666 75.825 48.0575 76.1876C48.2484 76.5424 48.5042 76.8163 48.8249 77.0092C49.1456 77.1943 49.5007 77.2869 49.8901 77.2869C50.2796 77.2869 50.6346 77.1943 50.9554 77.0092C51.2837 76.8163 51.5433 76.5424 51.7342 76.1876C51.9251 75.825 52.0206 75.4046 52.0206 74.9263ZM63.2269 72.4037C63.2269 73.0749 62.9978 73.6342 62.5396 74.0816C62.0891 74.5213 61.3981 74.7412 60.4665 74.7412H58.9317V78.1084H57.8894V70.0432H60.4665C61.3675 70.0432 62.0509 70.263 62.5167 70.7027C62.9902 71.1424 63.2269 71.7094 63.2269 72.4037ZM60.4665 73.8733C61.0468 73.8733 61.4744 73.746 61.7493 73.4914C62.0242 73.2369 62.1617 72.8743 62.1617 72.4037C62.1617 71.4086 61.5966 70.911 60.4665 70.911H58.9317V73.8733H60.4665ZM65.5647 72.7972C65.748 72.4346 66.0076 72.153 66.3435 71.9524C66.6872 71.7519 67.1033 71.6516 67.592 71.6516V72.7393H67.3171C66.1488 72.7393 65.5647 73.3796 65.5647 74.6602V78.1084H64.5224V71.7673H65.5647V72.7972ZM71.5328 78.2126C70.9448 78.2126 70.4103 78.0776 69.9293 77.8076C69.4558 77.5376 69.0817 77.1557 68.8068 76.662C68.5395 76.1606 68.4059 75.582 68.4059 74.9263C68.4059 74.2783 68.5433 73.7074 68.8182 73.2137C69.1008 72.7123 69.4826 72.3304 69.9636 72.0682C70.4447 71.7982 70.983 71.6632 71.5786 71.6632C72.1742 71.6632 72.7126 71.7982 73.1936 72.0682C73.6747 72.3304 74.0527 72.7084 74.3276 73.2022C74.6101 73.6959 74.7514 74.2706 74.7514 74.9263C74.7514 75.582 74.6063 76.1606 74.3161 76.662C74.0336 77.1557 73.648 77.5376 73.1593 77.8076C72.6706 78.0776 72.1284 78.2126 71.5328 78.2126ZM71.5328 77.2869C71.907 77.2869 72.2582 77.1982 72.5866 77.0207C72.9149 76.8433 73.1784 76.5772 73.3769 76.2223C73.5831 75.8674 73.6861 75.4354 73.6861 74.9263C73.6861 74.4172 73.5869 73.9852 73.3883 73.6303C73.1898 73.2754 72.9302 73.0132 72.6095 72.8434C72.2888 72.666 71.9413 72.5773 71.5672 72.5773C71.1854 72.5773 70.8341 72.666 70.5134 72.8434C70.2003 73.0132 69.9484 73.2754 69.7575 73.6303C69.5666 73.9852 69.4711 74.4172 69.4711 74.9263C69.4711 75.4432 69.5627 75.879 69.746 76.2339C69.9369 76.5887 70.1889 76.8549 70.502 77.0323C70.815 77.202 71.1586 77.2869 71.5328 77.2869ZM77.3927 72.6352V76.3727C77.3927 76.6813 77.4577 76.9012 77.5875 77.0323C77.7173 77.1557 77.9425 77.2174 78.2632 77.2174H79.0307V78.1084H78.0914C77.5111 78.1084 77.0759 77.9734 76.7857 77.7034C76.4955 77.4334 76.3504 76.9899 76.3504 76.3727V72.6352H75.5372V71.7673H76.3504V70.1704H77.3927V71.7673H79.0307V72.6352H77.3927ZM86.0207 74.6949C86.0207 74.8954 86.0093 75.1076 85.9864 75.3313H80.9696C81.0077 75.9562 81.2177 76.446 81.5995 76.8009C81.989 77.148 82.4586 77.3216 83.0084 77.3216C83.4589 77.3216 83.833 77.2174 84.1308 77.0092C84.4363 76.7932 84.6501 76.5077 84.7722 76.1529H85.8947C85.7267 76.7623 85.3908 77.2599 84.8868 77.6456C84.3828 78.0236 83.7567 78.2126 83.0084 78.2126C82.4128 78.2126 81.8782 78.0776 81.4048 77.8076C80.939 77.5376 80.5725 77.1557 80.3052 76.662C80.038 76.1606 79.9043 75.582 79.9043 74.9263C79.9043 74.2706 80.0341 73.6959 80.2938 73.2022C80.5534 72.7084 80.9161 72.3304 81.3819 72.0682C81.8553 71.7982 82.3975 71.6632 83.0084 71.6632C83.604 71.6632 84.1308 71.7943 84.589 72.0566C85.0471 72.3189 85.3984 72.6814 85.6427 73.1443C85.8947 73.5994 86.0207 74.1163 86.0207 74.6949ZM84.9441 74.475C84.9441 74.0739 84.8562 73.7306 84.6806 73.4452C84.505 73.152 84.2645 72.9322 83.959 72.7856C83.6612 72.6313 83.3291 72.5542 82.9625 72.5542C82.4357 72.5542 81.9851 72.7239 81.611 73.0633C81.2444 73.4027 81.0345 73.8733 80.981 74.475H84.9441ZM87.007 74.9263C87.007 74.2706 87.1368 73.6997 87.3965 73.2137C87.6561 72.72 88.015 72.3382 88.4731 72.0682C88.9389 71.7982 89.4696 71.6632 90.0652 71.6632C90.8365 71.6632 91.4702 71.8522 91.9666 72.2302C92.4705 72.6082 92.8027 73.1327 92.9631 73.8039H91.8406C91.7337 73.4182 91.5237 73.1134 91.2106 72.8897C90.9052 72.666 90.5234 72.5542 90.0652 72.5542C89.4696 72.5542 88.9886 72.7624 88.622 73.179C88.2555 73.5879 88.0722 74.1703 88.0722 74.9263C88.0722 75.69 88.2555 76.2802 88.622 76.6967C88.9886 77.1133 89.4696 77.3216 90.0652 77.3216C90.5234 77.3216 90.9052 77.2136 91.2106 76.9976C91.5161 76.7816 91.726 76.473 91.8406 76.0719H92.9631C92.7951 76.7199 92.4591 77.2406 91.9551 77.634C91.4511 78.0197 90.8212 78.2126 90.0652 78.2126C89.4696 78.2126 88.9389 78.0776 88.4731 77.8076C88.015 77.5376 87.6561 77.1557 87.3965 76.662C87.1368 76.1683 87.007 75.5897 87.007 74.9263ZM95.6255 72.6352V76.3727C95.6255 76.6813 95.6904 76.9012 95.8202 77.0323C95.95 77.1557 96.1752 77.2174 96.496 77.2174H97.2634V78.1084H96.3242C95.7438 78.1084 95.3086 77.9734 95.0184 77.7034C94.7282 77.4334 94.5832 76.9899 94.5832 76.3727V72.6352H93.7699V71.7673H94.5832V70.1704H95.6255V71.7673H97.2634V72.6352H95.6255ZM99.0642 70.7374C98.8656 70.7374 98.6977 70.668 98.5602 70.5292C98.4228 70.3903 98.354 70.2206 98.354 70.02C98.354 69.8194 98.4228 69.6497 98.5602 69.5109C98.6977 69.372 98.8656 69.3026 99.0642 69.3026C99.2551 69.3026 99.4154 69.372 99.5452 69.5109C99.6827 69.6497 99.7514 69.8194 99.7514 70.02C99.7514 70.2206 99.6827 70.3903 99.5452 70.5292C99.4154 70.668 99.2551 70.7374 99.0642 70.7374ZM99.5682 71.7673V78.1084H98.5258V71.7673H99.5682ZM104.082 78.2126C103.494 78.2126 102.96 78.0776 102.479 77.8076C102.005 77.5376 101.631 77.1557 101.356 76.662C101.089 76.1606 100.955 75.582 100.955 74.9263C100.955 74.2783 101.093 73.7074 101.368 73.2137C101.65 72.7123 102.032 72.3304 102.513 72.0682C102.994 71.7982 103.532 71.6632 104.128 71.6632C104.724 71.6632 105.262 71.7982 105.743 72.0682C106.224 72.3304 106.602 72.7084 106.877 73.2022C107.16 73.6959 107.301 74.2706 107.301 74.9263C107.301 75.582 107.156 76.1606 106.866 76.662C106.583 77.1557 106.197 77.5376 105.709 77.8076C105.22 78.0776 104.678 78.2126 104.082 78.2126ZM104.082 77.2869C104.456 77.2869 104.808 77.1982 105.136 77.0207C105.464 76.8433 105.728 76.5772 105.926 76.2223C106.133 75.8674 106.236 75.4354 106.236 74.9263C106.236 74.4172 106.136 73.9852 105.938 73.6303C105.739 73.2754 105.48 73.0132 105.159 72.8434C104.838 72.666 104.491 72.5773 104.117 72.5773C103.735 72.5773 103.384 72.666 103.063 72.8434C102.75 73.0132 102.498 73.2754 102.307 73.6303C102.116 73.9852 102.021 74.4172 102.021 74.9263C102.021 75.4432 102.112 75.879 102.295 76.2339C102.486 76.5887 102.738 76.8549 103.051 77.0323C103.364 77.202 103.708 77.2869 104.082 77.2869ZM111.73 71.6516C112.493 71.6516 113.112 71.8869 113.585 72.3574C114.059 72.8203 114.295 73.4914 114.295 74.3709V78.1084H113.264V74.5213C113.264 73.8887 113.108 73.4066 112.795 73.0749C112.482 72.7354 112.054 72.5657 111.512 72.5657C110.962 72.5657 110.523 72.7393 110.195 73.0864C109.874 73.4336 109.714 73.9389 109.714 74.6023V78.1084H108.671V71.7673H109.714V72.6699C109.92 72.3459 110.199 72.0952 110.55 71.9177C110.909 71.7403 111.302 71.6516 111.73 71.6516ZM119.59 70.7374C119.391 70.7374 119.223 70.668 119.086 70.5292C118.948 70.3903 118.879 70.2206 118.879 70.02C118.879 69.8194 118.948 69.6497 119.086 69.5109C119.223 69.372 119.391 69.3026 119.59 69.3026C119.78 69.3026 119.941 69.372 120.071 69.5109C120.208 69.6497 120.277 69.8194 120.277 70.02C120.277 70.2206 120.208 70.3903 120.071 70.5292C119.941 70.668 119.78 70.7374 119.59 70.7374ZM120.094 71.7673V78.1084H119.051V71.7673H120.094ZM124.928 71.6516C125.692 71.6516 126.31 71.8869 126.784 72.3574C127.257 72.8203 127.494 73.4914 127.494 74.3709V78.1084H126.463V74.5213C126.463 73.8887 126.307 73.4066 125.994 73.0749C125.681 72.7354 125.253 72.5657 124.711 72.5657C124.161 72.5657 123.722 72.7393 123.394 73.0864C123.073 73.4336 122.912 73.9389 122.912 74.6023V78.1084H121.87V71.7673H122.912V72.6699C123.119 72.3459 123.397 72.0952 123.749 71.9177C124.108 71.7403 124.501 71.6516 124.928 71.6516ZM133.292 70.8994V73.5956H136.202V74.4634H133.292V77.2406H136.545V78.1084H132.25V70.0316H136.545V70.8994H133.292ZM137.733 74.9147C137.733 74.2667 137.863 73.6997 138.123 73.2137C138.382 72.72 138.737 72.3382 139.188 72.0682C139.646 71.7982 140.158 71.6632 140.723 71.6632C141.211 71.6632 141.666 71.7789 142.086 72.0103C142.506 72.234 142.826 72.531 143.048 72.9013V69.5456H144.102V78.1084H143.048V76.9166C142.842 77.2946 142.536 77.607 142.131 77.8539C141.727 78.093 141.253 78.2126 140.711 78.2126C140.154 78.2126 139.646 78.0737 139.188 77.796C138.737 77.5183 138.382 77.1287 138.123 76.6273C137.863 76.1259 137.733 75.555 137.733 74.9147ZM143.048 74.9263C143.048 74.448 142.952 74.0314 142.761 73.6766C142.571 73.3217 142.311 73.0517 141.983 72.8666C141.662 72.6737 141.307 72.5773 140.917 72.5773C140.528 72.5773 140.173 72.6699 139.852 72.855C139.531 73.0402 139.276 73.3102 139.085 73.665C138.894 74.0199 138.798 74.4364 138.798 74.9147C138.798 75.4007 138.894 75.825 139.085 76.1876C139.276 76.5424 139.531 76.8163 139.852 77.0092C140.173 77.1943 140.528 77.2869 140.917 77.2869C141.307 77.2869 141.662 77.1943 141.983 77.0092C142.311 76.8163 142.571 76.5424 142.761 76.1876C142.952 75.825 143.048 75.4046 143.048 74.9263ZM151.43 71.7673V78.1084H150.387V77.1712C150.189 77.4952 149.91 77.7497 149.551 77.9349C149.2 78.1123 148.81 78.201 148.383 78.201C147.894 78.201 147.455 78.1007 147.066 77.9002C146.676 77.6919 146.367 77.3833 146.138 76.9744C145.916 76.5656 145.806 76.068 145.806 75.4817V71.7673H146.837V75.3429C146.837 75.9677 146.993 76.4499 147.306 76.7893C147.619 77.121 148.047 77.2869 148.589 77.2869C149.146 77.2869 149.585 77.1133 149.906 76.7662C150.227 76.419 150.387 75.9137 150.387 75.2503V71.7673H151.43ZM152.8 74.9263C152.8 74.2706 152.93 73.6997 153.19 73.2137C153.449 72.72 153.808 72.3382 154.266 72.0682C154.732 71.7982 155.263 71.6632 155.858 71.6632C156.63 71.6632 157.263 71.8522 157.76 72.2302C158.264 72.6082 158.596 73.1327 158.756 73.8039H157.634C157.527 73.4182 157.317 73.1134 157.004 72.8897C156.698 72.666 156.317 72.5542 155.858 72.5542C155.263 72.5542 154.782 72.7624 154.415 73.179C154.049 73.5879 153.865 74.1703 153.865 74.9263C153.865 75.69 154.049 76.2802 154.415 76.6967C154.782 77.1133 155.263 77.3216 155.858 77.3216C156.317 77.3216 156.698 77.2136 157.004 76.9976C157.309 76.7816 157.519 76.473 157.634 76.0719H158.756C158.588 76.7199 158.252 77.2406 157.748 77.634C157.244 78.0197 156.614 78.2126 155.858 78.2126C155.263 78.2126 154.732 78.0776 154.266 77.8076C153.808 77.5376 153.449 77.1557 153.19 76.662C152.93 76.1683 152.8 75.5897 152.8 74.9263ZM159.757 74.9147C159.757 74.2667 159.887 73.6997 160.147 73.2137C160.406 72.72 160.761 72.3382 161.212 72.0682C161.67 71.7982 162.178 71.6632 162.735 71.6632C163.285 71.6632 163.762 71.7827 164.167 72.0219C164.572 72.261 164.873 72.5619 165.072 72.9244V71.7673H166.126V78.1084H165.072V76.9282C164.866 77.2984 164.556 77.607 164.144 77.8539C163.739 78.093 163.266 78.2126 162.724 78.2126C162.166 78.2126 161.662 78.0737 161.212 77.796C160.761 77.5183 160.406 77.1287 160.147 76.6273C159.887 76.1259 159.757 75.555 159.757 74.9147ZM165.072 74.9263C165.072 74.448 164.976 74.0314 164.785 73.6766C164.595 73.3217 164.335 73.0517 164.007 72.8666C163.686 72.6737 163.331 72.5773 162.941 72.5773C162.552 72.5773 162.197 72.6699 161.876 72.855C161.555 73.0402 161.3 73.3102 161.109 73.665C160.918 74.0199 160.822 74.4364 160.822 74.9147C160.822 75.4007 160.918 75.825 161.109 76.1876C161.3 76.5424 161.555 76.8163 161.876 77.0092C162.197 77.1943 162.552 77.2869 162.941 77.2869C163.331 77.2869 163.686 77.1943 164.007 77.0092C164.335 76.8163 164.595 76.5424 164.785 76.1876C164.976 75.825 165.072 75.4046 165.072 74.9263ZM169.158 72.6352V76.3727C169.158 76.6813 169.223 76.9012 169.353 77.0323C169.483 77.1557 169.708 77.2174 170.029 77.2174H170.796V78.1084H169.857C169.277 78.1084 168.841 77.9734 168.551 77.7034C168.261 77.4334 168.116 76.9899 168.116 76.3727V72.6352H167.303V71.7673H168.116V70.1704H169.158V71.7673H170.796V72.6352H169.158ZM172.598 70.7374C172.399 70.7374 172.231 70.668 172.094 70.5292C171.956 70.3903 171.887 70.2206 171.887 70.02C171.887 69.8194 171.956 69.6497 172.094 69.5109C172.231 69.372 172.399 69.3026 172.598 69.3026C172.788 69.3026 172.949 69.372 173.079 69.5109C173.216 69.6497 173.285 69.8194 173.285 70.02C173.285 70.2206 173.216 70.3903 173.079 70.5292C172.949 70.668 172.788 70.7374 172.598 70.7374ZM173.102 71.7673V78.1084H172.059V71.7673H173.102ZM177.616 78.2126C177.028 78.2126 176.493 78.0776 176.012 77.8076C175.539 77.5376 175.165 77.1557 174.89 76.662C174.622 76.1606 174.489 75.582 174.489 74.9263C174.489 74.2783 174.626 73.7074 174.901 73.2137C175.184 72.7123 175.565 72.3304 176.047 72.0682C176.528 71.7982 177.066 71.6632 177.662 71.6632C178.257 71.6632 178.795 71.7982 179.277 72.0682C179.758 72.3304 180.136 72.7084 180.41 73.2022C180.693 73.6959 180.834 74.2706 180.834 74.9263C180.834 75.582 180.689 76.1606 180.399 76.662C180.116 77.1557 179.731 77.5376 179.242 77.8076C178.753 78.0776 178.211 78.2126 177.616 78.2126ZM177.616 77.2869C177.99 77.2869 178.341 77.1982 178.669 77.0207C178.998 76.8433 179.261 76.5772 179.46 76.2223C179.666 75.8674 179.769 75.4354 179.769 74.9263C179.769 74.4172 179.67 73.9852 179.471 73.6303C179.273 73.2754 179.013 73.0132 178.692 72.8434C178.372 72.666 178.024 72.5773 177.65 72.5773C177.268 72.5773 176.917 72.666 176.596 72.8434C176.283 73.0132 176.031 73.2754 175.84 73.6303C175.649 73.9852 175.554 74.4172 175.554 74.9263C175.554 75.4432 175.646 75.879 175.829 76.2339C176.02 76.5887 176.272 76.8549 176.585 77.0323C176.898 77.202 177.242 77.2869 177.616 77.2869ZM185.262 71.6516C186.026 71.6516 186.645 71.8869 187.118 72.3574C187.591 72.8203 187.828 73.4914 187.828 74.3709V78.1084H186.797V74.5213C186.797 73.8887 186.641 73.4066 186.328 73.0749C186.015 72.7354 185.587 72.5657 185.045 72.5657C184.495 72.5657 184.056 72.7393 183.728 73.0864C183.407 73.4336 183.247 73.9389 183.247 74.6023V78.1084H182.204V71.7673H183.247V72.6699C183.453 72.3459 183.731 72.0952 184.083 71.9177C184.442 71.7403 184.835 71.6516 185.262 71.6516Z" fill="white"/>
</g>
<defs>
<filter id="filter0_d" x="130.791" y="7.65018" width="18.3288" height="19.9174" filterUnits="userSpaceOnUse" color-interpolation-filters="sRGB">
<feFlood flood-opacity="0" result="BackgroundImageFix"/>
<feColorMatrix in="SourceAlpha" type="matrix" values="0 0 0 0 0 0 0 0 0 0 0 0 0 0 0 0 0 0 127 0"/>
<feOffset dy="4"/>
<feGaussianBlur stdDeviation="2"/>
<feColorMatrix type="matrix" values="0 0 0 0 0 0 0 0 0 0 0 0 0 0 0 0 0 0 0.25 0"/>
<feBlend mode="normal" in2="BackgroundImageFix" result="effect1_dropShadow"/>
<feBlend mode="normal" in="SourceGraphic" in2="effect1_dropShadow" result="shape"/>
</filter>
<filter id="filter1_d" x="167.587" y="7.65018" width="18.3288" height="19.9174" filterUnits="userSpaceOnUse" color-interpolation-filters="sRGB">
<feFlood flood-opacity="0" result="BackgroundImageFix"/>
<feColorMatrix in="SourceAlpha" type="matrix" values="0 0 0 0 0 0 0 0 0 0 0 0 0 0 0 0 0 0 127 0"/>
<feOffset dy="4"/>
<feGaussianBlur stdDeviation="2"/>
<feColorMatrix type="matrix" values="0 0 0 0 0 0 0 0 0 0 0 0 0 0 0 0 0 0 0.25 0"/>
<feBlend mode="normal" in2="BackgroundImageFix" result="effect1_dropShadow"/>
<feBlend mode="normal" in="SourceGraphic" in2="effect1_dropShadow" result="shape"/>
</filter>
<filter id="filter2_d" x="149.512" y="25.5264" width="15.7466" height="17.2691" filterUnits="userSpaceOnUse" color-interpolation-filters="sRGB">
<feFlood flood-opacity="0" result="BackgroundImageFix"/>
<feColorMatrix in="SourceAlpha" type="matrix" values="0 0 0 0 0 0 0 0 0 0 0 0 0 0 0 0 0 0 127 0"/>
<feOffset dy="4"/>
<feGaussianBlur stdDeviation="2"/>
<feColorMatrix type="matrix" values="0 0 0 0 0 0 0 0 0 0 0 0 0 0 0 0 0 0 0.25 0"/>
<feBlend mode="normal" in2="BackgroundImageFix" result="effect1_dropShadow"/>
<feBlend mode="normal" in="SourceGraphic" in2="effect1_dropShadow" result="shape"/>
</filter>
<filter id="filter3_d" x="122.384" y="19.8474" width="70.6324" height="49.1001" filterUnits="userSpaceOnUse" color-interpolation-filters="sRGB">
<feFlood flood-opacity="0" result="BackgroundImageFix"/>
<feColorMatrix in="SourceAlpha" type="matrix" values="0 0 0 0 0 0 0 0 0 0 0 0 0 0 0 0 0 0 127 0"/>
<feOffset dy="4"/>
<feGaussianBlur stdDeviation="2"/>
<feColorMatrix type="matrix" values="0 0 0 0 0 0 0 0 0 0 0 0 0 0 0 0 0 0 0.25 0"/>
<feBlend mode="normal" in2="BackgroundImageFix" result="effect1_dropShadow"/>
<feBlend mode="normal" in="SourceGraphic" in2="effect1_dropShadow" result="shape"/>
</filter>
<filter id="filter4_d" x="3.00537" y="24.1948" width="119.533" height="40.9554" filterUnits="userSpaceOnUse" color-interpolation-filters="sRGB">
<feFlood flood-opacity="0" result="BackgroundImageFix"/>
<feColorMatrix in="SourceAlpha" type="matrix" values="0 0 0 0 0 0 0 0 0 0 0 0 0 0 0 0 0 0 127 0"/>
<feOffset dy="4"/>
<feGaussianBlur stdDeviation="2"/>
<feColorMatrix type="matrix" values="0 0 0 0 0 0 0 0 0 0 0 0 0 0 0 0 0 0 0.25 0"/>
<feBlend mode="normal" in2="BackgroundImageFix" result="effect1_dropShadow"/>
<feBlend mode="normal" in="SourceGraphic" in2="effect1_dropShadow" result="shape"/>
</filter>
<filter id="filter5_d" x="20.8943" y="69.3026" width="170.934" height="16.91" filterUnits="userSpaceOnUse" color-interpolation-filters="sRGB">
<feFlood flood-opacity="0" result="BackgroundImageFix"/>
<feColorMatrix in="SourceAlpha" type="matrix" values="0 0 0 0 0 0 0 0 0 0 0 0 0 0 0 0 0 0 127 0"/>
<feOffset dy="4"/>
<feGaussianBlur stdDeviation="2"/>
<feColorMatrix type="matrix" values="0 0 0 0 0 0 0 0 0 0 0 0 0 0 0 0 0 0 0.25 0"/>
<feBlend mode="normal" in2="BackgroundImageFix" result="effect1_dropShadow"/>
<feBlend mode="normal" in="SourceGraphic" in2="effect1_dropShadow" result="shape"/>
</filter>
</defs>
</svg>
